<?xml version="1.0" encoding="iso-8859-1"?>
<!-- Generator: Adobe Illustrator 19.0.0, SVG Export Plug-In . SVG Version: 6.00 Build 0)  -->
<svg width="53" height="53" viewBox="0 0 53 53" fill="none" xmlns="http://www.w3.org/2000/svg">
<g filter="url(#filter0_d)">
<circle cx="26.5" cy="22.5" r="22.5" fill="white"/>
</g>
<g clip-path="url(#clip0)">
<path d="M26.7367 44.0527C38.5091 44.0527 48.0525 34.5093 48.0525 22.7369C48.0525 10.9645 38.5091 1.42108 26.7367 1.42108C14.9643 1.42108 5.4209 10.9645 5.4209 22.7369C5.4209 34.5093 14.9643 44.0527 26.7367 44.0527Z" fill="#B8BAC0"/>
<path d="M26.7366 33.401C24.2547 33.401 22.003 32.336 20.3416 30.6147C20.3403 31.6463 20.3028 33.1352 20.0293 34.2216C20.2087 34.3313 20.348 34.5113 20.3751 34.7353C20.7297 37.6204 23.4642 39.7957 26.7366 39.7957C30.0082 39.7957 32.7427 37.6201 33.098 34.7353C33.1255 34.511 33.2618 34.3313 33.4439 34.2219C33.1704 33.1355 33.1328 31.6464 33.1316 30.6147C31.4702 32.336 29.2184 33.401 26.7366 33.401Z" fill="white"/>
<path d="M32.9928 30.7458C31.3453 32.3868 29.1522 33.401 26.7366 33.401C24.2547 33.401 22.003 32.336 20.3416 30.6147C20.3403 31.6463 20.3028 33.1352 20.0293 34.2216C20.2087 34.3313 20.348 34.5113 20.3751 34.7353C20.5319 36.0106 21.1548 37.1461 22.0825 38.0174C26.3605 37.415 31.2162 33.1907 32.9928 30.7458Z" fill="#D7DBE0"/>
<path d="M33.1316 15.6379H21.0526C19.0938 15.6379 17.5 17.2317 17.5 19.1905V23.4537C17.5 28.9388 21.6438 33.401 26.7368 33.401C31.8299 33.401 35.9737 28.9388 35.9737 23.4537V18.48C35.9737 16.9129 34.699 15.6379 33.1316 15.6379Z" fill="white"/>
<path d="M31.7103 7.82202H22.4734C21.137 7.82202 20.0137 8.74908 19.7111 9.99348C17.2652 10.3044 15.3682 12.3985 15.3682 14.9273V18.4799C15.3682 20.311 16.1455 22.0193 17.4997 23.2333V19.1904C17.4997 17.2316 19.0935 15.6378 21.0524 15.6378H33.1313C34.6987 15.6378 35.9734 16.9128 35.9734 18.4799V23.2325C37.3279 22.0187 38.105 20.3106 38.105 18.4799V14.2168C38.105 10.6909 35.2365 7.82202 31.7103 7.82202Z" fill="#5C546A"/>
<path d="M10.8945 36.9957C14.7962 41.3277 20.4475 44.0527 26.7364 44.0527C33.0254 44.0527 38.6767 41.3277 42.5783 36.9957C41.898 36.0759 40.9386 35.3286 39.705 34.9832C39.6765 34.9752 39.648 34.969 39.6189 34.9648L33.9472 34.1138C33.9125 34.1086 33.8382 34.1058 33.8029 34.1058C33.4442 34.1058 33.1416 34.3733 33.0979 34.7296C32.7426 37.6143 30.008 39.79 26.7364 39.79C23.4641 39.79 20.7296 37.6148 20.375 34.7296C20.3306 34.3629 20.0003 34.0871 19.6519 34.1061C19.6103 34.1037 19.5693 34.1072 19.5257 34.1137L13.854 34.9648C13.8248 34.9689 13.7964 34.9752 13.7679 34.9831C12.5342 35.3287 11.5749 36.0759 10.8945 36.9957Z" fill="#5C546A"/>
</g>
<defs>
<filter id="filter0_d" x="0" y="0" width="53" height="53" filterUnits="userSpaceOnUse" color-interpolation-filters="sRGB">
<feFlood flood-opacity="0" result="BackgroundImageFix"/>
<feColorMatrix in="SourceAlpha" type="matrix" values="0 0 0 0 0 0 0 0 0 0 0 0 0 0 0 0 0 0 127 0"/>
<feOffset dy="4"/>
<feGaussianBlur stdDeviation="2"/>
<feColorMatrix type="matrix" values="0 0 0 0 0 0 0 0 0 0 0 0 0 0 0 0 0 0 0.1 0"/>
<feBlend mode="normal" in2="BackgroundImageFix" result="effect1_dropShadow"/>
<feBlend mode="normal" in="SourceGraphic" in2="effect1_dropShadow" result="shape"/>
</filter>
<clipPath id="clip0">
<rect width="42.6316" height="42.6316" fill="white" transform="translate(5.4209 1.42108)"/>
</clipPath>
</defs>
</svg>
