<svg width="30" height="9" viewBox="0 0 30 9" fill="none" xmlns="http://www.w3.org/2000/svg">
<path d="M6.76714 0.547852L5.32714 7.99985H1.64314L0.119141 0.547852H2.89114L3.46714 5.11985H3.61114L4.12714 0.547852H6.76714Z" fill="#2C5F2D"/>
<path d="M12.1218 7.99985H7.36977V0.547852H12.2898L12.1218 2.52785H9.93777V3.42785H11.8458V5.15585H9.93777V6.17585H12.2898L12.1218 7.99985Z" fill="#2C5F2D"/>
<path d="M19.225 7.99985H16.777L15.265 5.05985H15.181V7.99985H12.901V0.547852H15.433L16.849 3.58385H16.921V0.547852H19.225V7.99985Z" fill="#2C5F2D"/>
<path d="M26.6341 4.11185C26.6341 6.70385 25.4501 7.99985 23.0821 7.99985H20.1901V0.547852H23.1421C24.4141 0.547852 25.3141 0.855852 25.8421 1.47185C26.3701 2.07985 26.6341 2.95985 26.6341 4.11185ZM23.0461 6.12785C23.4541 6.12785 23.7181 5.98785 23.8381 5.70785C23.9581 5.42785 24.0181 4.96385 24.0181 4.31585C24.0181 3.65985 23.9501 3.19585 23.8141 2.92385C23.6861 2.64385 23.4141 2.50385 22.9981 2.50385H22.7461V6.12785H23.0461Z" fill="#2C5F2D"/>
<path d="M28.6457 8.11985C28.2137 8.11985 27.9097 8.04385 27.7337 7.89185C27.5577 7.73185 27.4697 7.48785 27.4697 7.15985C27.4697 6.83185 27.5537 6.59185 27.7217 6.43985C27.8977 6.27985 28.2057 6.19985 28.6457 6.19985C29.0857 6.19985 29.3897 6.27985 29.5577 6.43985C29.7257 6.59185 29.8097 6.83185 29.8097 7.15985C29.8097 7.48785 29.7217 7.73185 29.5457 7.89185C29.3777 8.04385 29.0777 8.11985 28.6457 8.11985Z" fill="#2C5F2D"/>
</svg>
